<svg width="114" height="25" viewBox="0 0 114 25" fill="none" xmlns="http://www.w3.org/2000/svg">
<path d="M44.0415 13.5231C44.4155 13.8785 44.6024 14.2901 44.6024 14.7766C44.6024 15.5062 44.1911 16.0675 43.3498 16.4604C42.5272 16.8533 41.312 17.0591 39.7416 17.0591H33.2729V8.771H39.4051C40.9381 8.771 42.0972 8.97679 42.8637 9.36968C43.6489 9.76257 44.0415 10.2864 44.0415 10.9412C44.0415 11.3341 43.9107 11.6709 43.6489 11.9889C43.3872 12.2883 42.9759 12.5502 42.4524 12.7373C43.1442 12.9057 43.6676 13.1676 44.0415 13.5231ZM37.0868 10.7354V11.9702H38.8816C39.7229 11.9702 40.1529 11.7644 40.1529 11.3528C40.1529 10.9412 39.7229 10.7354 38.8816 10.7354H37.0868ZM40.6951 14.4585C40.6951 14.0282 40.2651 13.8037 39.4238 13.8037H37.0868V15.1133H39.4238C40.2651 15.1133 40.6951 14.8888 40.6951 14.4585Z" fill="#717171"/>
<path d="M48.6405 16.6849C47.6496 16.3107 46.8831 15.8055 46.3223 15.132C45.7614 14.4772 45.481 13.7289 45.481 12.9057C45.481 12.0825 45.7614 11.3341 46.3223 10.6793C46.8831 10.0245 47.6496 9.50063 48.6405 9.12645C49.6314 8.75227 50.7344 8.56519 51.9683 8.56519C53.2022 8.56519 54.3052 8.75227 55.2961 9.12645C56.287 9.50063 57.0535 10.0058 57.6143 10.6793C58.1752 11.3341 58.4556 12.0825 58.4556 12.9057C58.4556 13.7289 58.1752 14.4772 57.6143 15.132C57.0535 15.7868 56.287 16.3107 55.2961 16.6849C54.3052 17.059 53.2022 17.2461 51.9683 17.2461C50.7344 17.2461 49.6314 17.059 48.6405 16.6849ZM53.277 14.7391C53.6696 14.5708 53.9687 14.3275 54.2118 14.0095C54.4361 13.6914 54.5483 13.336 54.5483 12.9057C54.5483 12.4941 54.4361 12.1199 54.2118 11.8205C53.9874 11.5025 53.6696 11.2593 53.277 11.0909C52.8844 10.9225 52.4544 10.829 51.9683 10.829C51.4822 10.829 51.0522 10.9225 50.6596 11.0909C50.267 11.2593 49.9679 11.5025 49.7248 11.8205C49.5005 12.1386 49.3883 12.4941 49.3883 12.9057C49.3883 13.3173 49.5005 13.6914 49.7248 14.0095C49.9492 14.3275 50.267 14.5708 50.6596 14.7391C51.0522 14.9075 51.4822 15.0011 51.9683 15.0011C52.4544 15.0011 52.8844 14.9075 53.277 14.7391Z" fill="#717171"/>
<path d="M62.1948 10.9412H58.8296V8.771H69.4299V10.9412H66.0647V17.0591H62.1948V10.9412Z" fill="#717171"/>
<path d="M77.6746 15.6185H73.3185L72.552 17.0591H68.626L73.6364 8.771H77.4315L82.4419 17.0591H78.4411L77.6746 15.6185ZM76.6089 13.5979L75.4872 11.5212L74.3655 13.5979H76.6089Z" fill="#717171"/>
<path d="M94.3699 8.771V17.0591H91.1916L86.8356 13.2986V17.0591H83.0591V8.771H86.2373L90.5934 12.5315V8.771H94.3699Z" fill="#717171"/>
<path d="M96.2393 8.771H100.109V17.0591H96.2393V8.771Z" fill="#717171"/>
<path d="M106.653 14.3088L105.793 15.0011V17.0403H101.998V8.771H105.793V11.7831L109.569 8.771H113.776L109.177 12.4192L114 17.0591H109.532L106.653 14.3088Z" fill="#717171"/>
<path d="M34.6749 20.6465H33.0371V20.2231H37.0147V20.6714H35.3769V23.7593H34.6749V20.6465Z" fill="#717171"/>
<path d="M44.6655 23.3105V23.7588H41.1792V20.2227H44.5719V20.6709H41.8811V21.7666H44.2677V22.165H41.8811V23.3105H44.6655Z" fill="#717171"/>
<path d="M50.0467 23.5596C49.649 23.4101 49.3682 23.186 49.1342 22.9121C48.9236 22.6382 48.8066 22.3393 48.8066 21.9907C48.8066 21.6421 48.9236 21.3433 49.1342 21.0693C49.3448 20.7954 49.649 20.5713 50.0467 20.4219C50.4211 20.2476 50.8656 20.1729 51.3336 20.1729C51.708 20.1729 52.0589 20.2227 52.3631 20.3223C52.6907 20.397 52.948 20.5464 53.1586 20.7207L52.7141 21.0444C52.3631 20.7705 51.8951 20.6211 51.357 20.6211C51.006 20.6211 50.6785 20.6709 50.3977 20.7954C50.1169 20.9199 49.8829 21.0693 49.7192 21.2935C49.5554 21.4927 49.4852 21.7417 49.4852 21.9907C49.4852 22.2397 49.5554 22.4888 49.7192 22.688C49.8829 22.8872 50.1169 23.0615 50.3977 23.186C50.6785 23.3105 51.006 23.3603 51.357 23.3603C51.8951 23.3603 52.3397 23.2109 52.7141 22.937L53.1586 23.2607C52.948 23.4101 52.6907 23.5596 52.3631 23.6592C52.0589 23.7588 51.708 23.8086 51.3336 23.8086C50.8656 23.7837 50.4211 23.709 50.0467 23.5596Z" fill="#717171"/>
<path d="M61.699 20.2227V23.7588H61.0205V22.165H58.2596V23.7339H57.5811V20.2227H58.2596V21.7417H61.0205V20.2227H61.699Z" fill="#717171"/>
<path d="M70.7074 20.2227V23.7588H70.1458L67.2679 21.1191V23.7588H66.5894V20.2227H67.1509L70.0288 22.8623V20.2227H70.7074Z" fill="#717171"/>
<path d="M76.4398 23.5593C76.042 23.4099 75.7379 23.1858 75.5273 22.9119C75.3167 22.6379 75.1997 22.3391 75.1997 21.9905C75.1997 21.6418 75.3167 21.343 75.5273 21.0691C75.7379 20.7952 76.0654 20.571 76.4398 20.4216C76.8375 20.2722 77.2587 20.1975 77.7501 20.1975C78.2414 20.1975 78.6626 20.2722 79.0603 20.4216C79.4581 20.571 79.7623 20.7952 79.9728 21.0691C80.1834 21.343 80.3004 21.6418 80.3004 21.9905C80.3004 22.3391 80.1834 22.6379 79.9728 22.9119C79.7623 23.1858 79.4581 23.4099 79.0603 23.5593C78.6626 23.7087 78.2414 23.7834 77.7501 23.7834C77.2587 23.7834 76.8141 23.7087 76.4398 23.5593ZM78.686 23.1609C78.9667 23.0364 79.1773 22.887 79.3411 22.6628C79.5049 22.4636 79.5751 22.2146 79.5751 21.9656C79.5751 21.7165 79.5049 21.4675 79.3411 21.2683C79.1773 21.0691 78.9667 20.8948 78.686 20.7703C78.4052 20.6458 78.0776 20.5959 77.7267 20.5959C77.3757 20.5959 77.0715 20.6707 76.7907 20.7952C76.51 20.9197 76.276 21.0691 76.1122 21.2932C75.9484 21.4924 75.8782 21.7414 75.8782 21.9905C75.8782 22.2395 75.9484 22.4885 76.1122 22.6877C76.276 22.887 76.51 23.0613 76.7907 23.1858C77.0715 23.3103 77.3991 23.3601 77.7501 23.3601C78.101 23.3601 78.4052 23.2854 78.686 23.1609Z" fill="#717171"/>
<path d="M84.7695 20.2227H85.4481V23.3105H88.0452V23.7588H84.7695V20.2227Z" fill="#717171"/>
<path d="M93.0286 23.5596C92.6309 23.4101 92.3267 23.186 92.1161 22.9121C91.9056 22.6382 91.7886 22.3393 91.7886 21.9907C91.7886 21.6421 91.9056 21.3433 92.1161 21.0693C92.3267 20.7954 92.6543 20.5713 93.0286 20.4219C93.4264 20.2476 93.871 20.1729 94.3389 20.1729C94.8303 20.1729 95.2514 20.2476 95.6492 20.397C96.047 20.5464 96.3511 20.7705 96.5617 21.0444C96.7723 21.3184 96.8893 21.6172 96.8893 21.9658C96.8893 22.3144 96.7723 22.6133 96.5617 22.8872C96.3511 23.1611 96.047 23.3852 95.6492 23.5347C95.2514 23.6841 94.8303 23.7588 94.3389 23.7588C93.871 23.7837 93.4264 23.709 93.0286 23.5596ZM95.2982 23.1611C95.579 23.0366 95.7896 22.8872 95.9534 22.6631C96.1171 22.4639 96.1873 22.2148 96.1873 21.9658C96.1873 21.7168 96.1171 21.4678 95.9534 21.2686C95.7896 21.0693 95.579 20.895 95.2982 20.7705C95.0175 20.646 94.6899 20.5962 94.3389 20.5962C93.988 20.5962 93.6604 20.646 93.3796 20.7705C93.0988 20.895 92.8649 21.0444 92.7011 21.2686C92.5373 21.4678 92.4671 21.7168 92.4671 21.9658C92.4671 22.2148 92.5373 22.4639 92.7011 22.6631C92.8649 22.8623 93.0988 23.0366 93.3796 23.1611C93.6604 23.2856 93.988 23.3354 94.3389 23.3354C94.6899 23.3354 95.0175 23.2856 95.2982 23.1611Z" fill="#717171"/>
<path d="M104.704 21.9656H105.359V23.3352C105.125 23.4846 104.844 23.5842 104.54 23.6589C104.236 23.7336 103.885 23.7834 103.557 23.7834C103.066 23.7834 102.645 23.7087 102.247 23.5593C101.849 23.4099 101.545 23.1858 101.334 22.9119C101.124 22.6379 101.007 22.3391 101.007 21.9905C101.007 21.6418 101.124 21.343 101.334 21.0691C101.545 20.7952 101.873 20.571 102.247 20.4216C102.645 20.2722 103.089 20.1975 103.557 20.1975C103.932 20.1975 104.283 20.2473 104.61 20.3469C104.914 20.4465 105.195 20.571 105.406 20.7454L104.984 21.0691C104.61 20.7952 104.142 20.6707 103.581 20.6707C103.206 20.6707 102.879 20.7205 102.598 20.845C102.317 20.9695 102.083 21.1189 101.919 21.3181C101.756 21.5173 101.662 21.7664 101.662 22.0154C101.662 22.2644 101.756 22.5134 101.919 22.7126C102.083 22.9119 102.317 23.0862 102.598 23.2107C102.879 23.3352 103.206 23.385 103.581 23.385C104.002 23.385 104.376 23.3103 104.704 23.1609V21.9656Z" fill="#717171"/>
<path d="M111.934 22.5386V23.7588H111.256V22.5137L109.36 20.2227H110.086L111.63 22.0903L113.174 20.2227H113.853L111.934 22.5386Z" fill="#717171"/>
<path d="M8.99088 5.7228C8.53784 5.7228 8.17773 5.36269 8.17773 4.90966V1.12272C8.17773 0.669678 8.53784 0.30957 8.99088 0.30957C9.44392 0.30957 9.80403 0.669678 9.80403 1.12272V4.90966C9.80403 5.36269 9.44392 5.7228 8.99088 5.7228Z" fill="#717171"/>
<path d="M19.6236 12.2747H8.60356C7.47678 12.2747 6.55908 13.1924 6.55908 14.3191C6.55908 15.4459 7.47678 16.3636 8.60356 16.3636H19.6236C20.7504 16.3636 21.6681 15.4459 21.6681 14.3191C21.6681 13.1924 20.7504 12.2747 19.6236 12.2747Z" fill="#717171"/>
<path d="M23.4302 8.4064C23.4186 8.39478 23.3954 8.38317 23.3838 8.38317C20.4913 7.01244 17.5756 6.37354 14.1836 6.37354C10.8032 6.37354 7.8759 7.01244 4.99504 8.37155C4.98343 8.38317 4.96019 8.38317 4.94858 8.39478C2.47429 9.59127 0 12.2166 0 15.4227C0 18.6056 2.47429 21.2425 4.92534 22.439C4.93696 22.4506 4.96019 22.4506 4.97181 22.4622C7.85267 23.833 10.78 24.4719 14.1836 24.4719H14.1952C17.5872 24.4719 20.5145 23.833 23.407 22.4622C23.4186 22.4506 23.4418 22.4506 23.4535 22.439C25.9045 21.2425 28.3788 18.6056 28.3788 15.4227C28.3672 12.2282 25.8929 9.60289 23.4302 8.4064ZM16.1235 21.347H12.1043C11.6512 21.347 11.2911 20.9869 11.2911 20.5339C11.2911 20.0809 11.6512 19.7208 12.1043 19.7208H16.1235C16.5766 19.7208 16.9367 20.0809 16.9367 20.5339C16.9367 20.9869 16.5766 21.347 16.1235 21.347ZM19.6239 17.9899H8.60386C6.58261 17.9899 4.93309 16.3404 4.93309 14.3191C4.93309 12.2979 6.58261 10.6484 8.60386 10.6484H19.6239C21.6452 10.6484 23.2947 12.2979 23.2947 14.3191C23.2947 16.3404 21.6452 17.9899 19.6239 17.9899Z" fill="#717171"/>
<path d="M19.2382 5.88563C19.0701 5.88563 18.9019 5.81619 18.7674 5.67729C18.4984 5.3995 18.4984 4.96546 18.7674 4.68767L19.8772 3.5418L18.7001 3.29873C18.4647 3.24665 18.263 3.05567 18.1957 2.8126C18.1284 2.56954 18.1957 2.30911 18.3638 2.11813L20.2135 0.208341C20.4826 -0.069447 20.9029 -0.069447 21.172 0.208341C21.441 0.486129 21.441 0.920173 21.172 1.19796L20.1967 2.2223L21.3569 2.48273C21.5923 2.53482 21.7941 2.7258 21.8614 2.96886C21.9287 3.21192 21.8614 3.47235 21.6932 3.66333L19.7091 5.67729C19.5745 5.81619 19.4064 5.88563 19.2382 5.88563Z" fill="#717171"/>
</svg>
