<svg width="21" height="20" viewBox="0 0 21 20" fill="none" xmlns="http://www.w3.org/2000/svg">
<path d="M2.625 5H4.375H18.375" stroke="#DF0028" stroke-width="1.3" stroke-linecap="round" stroke-linejoin="round"/>
<path d="M7 5.00008V3.33342C7 2.89139 7.18438 2.46746 7.51256 2.1549C7.84075 1.84234 8.28587 1.66675 8.75 1.66675H12.25C12.7141 1.66675 13.1592 1.84234 13.4874 2.1549C13.8156 2.46746 14 2.89139 14 3.33342V5.00008M16.625 5.00008V16.6668C16.625 17.1088 16.4406 17.5327 16.1124 17.8453C15.7842 18.1578 15.3391 18.3334 14.875 18.3334H6.125C5.66087 18.3334 5.21575 18.1578 4.88756 17.8453C4.55937 17.5327 4.375 17.1088 4.375 16.6668V5.00008H16.625Z" stroke="#DF0028" stroke-width="1.3" stroke-linecap="round" stroke-linejoin="round"/>
<path d="M8.75 9.16675V14.1667" stroke="#DF0028" stroke-width="1.3" stroke-linecap="round" stroke-linejoin="round"/>
<path d="M12.25 9.16675V14.1667" stroke="#DF0028" stroke-width="1.3" stroke-linecap="round" stroke-linejoin="round"/>
</svg>
