<svg width="13" height="11" viewBox="0 0 13 11" fill="none" xmlns="http://www.w3.org/2000/svg">
<path d="M9.11901 2.09115V2.00521C9.11901 0.899504 8.22399 0 7.12379 0H1.99523C0.895027 0 0 0.899504 0 2.00521V8.99479C0 10.1005 0.895027 11 1.99523 11H7.12379C8.22399 11 9.11901 10.1005 9.11901 8.99479V8.90885C9.11901 8.63196 8.89572 8.40755 8.62021 8.40755C8.3447 8.40755 8.1214 8.63196 8.1214 8.90885V8.99479C8.1214 9.54759 7.67384 9.9974 7.12379 9.9974H1.99523C1.44518 9.9974 0.997613 9.54759 0.997613 8.99479V2.00521C0.997613 1.4524 1.44518 1.0026 1.99523 1.0026H7.12379C7.67384 1.0026 8.1214 1.4524 8.1214 2.00521V2.09115C8.1214 2.36804 8.3447 2.59245 8.62021 2.59245C8.89572 2.59245 9.11901 2.36804 9.11901 2.09115ZM12.6353 6.36112L11.5184 7.48367C11.3235 7.67949 11.0077 7.67949 10.8129 7.48367C10.6181 7.28794 10.6181 6.97052 10.8129 6.7748L11.6074 5.97624H4.52044C4.24493 5.97624 4.02164 5.75183 4.02164 5.47493C4.02164 5.19804 4.24493 4.97363 4.52044 4.97363H11.6074L10.8129 4.17507C10.6181 3.97935 10.6181 3.66192 10.8129 3.4662C10.9103 3.36829 11.038 3.31934 11.1656 3.31934C11.2933 3.31934 11.4209 3.36829 11.5184 3.4662L12.6353 4.58875C13.1216 5.07742 13.1216 5.87245 12.6353 6.36112Z" fill="#084887"/>
</svg>
