<svg width="23" height="23" viewBox="0 0 23 23" fill="none" xmlns="http://www.w3.org/2000/svg">
<path d="M17.7762 18.1353C18.2154 17.8005 18.3001 17.173 17.9653 16.7338C17.6305 16.2946 17.003 16.2099 16.5638 16.5447L17.7762 18.1353ZM11.5 19.3064V20.3064C11.5054 20.3064 11.5109 20.3063 11.5163 20.3062L11.5 19.3064ZM1 11.67L0.118844 11.1972C-0.0347895 11.4835 -0.0397388 11.8266 0.105573 12.1172L1 11.67ZM6.4369 6.79478C6.87584 6.4596 6.95996 5.83204 6.62478 5.3931C6.2896 4.95416 5.66204 4.87004 5.2231 5.20522L6.4369 6.79478ZM9.26754 3.11908C8.72979 3.24495 8.3959 3.78293 8.52177 4.32068C8.64765 4.85843 9.18562 5.19232 9.72337 5.06644L9.26754 3.11908ZM11.5 3.86367L11.4977 4.86367H11.5V3.86367ZM22 11.5L22.8819 11.9714C23.0348 11.6854 23.0395 11.3429 22.8944 11.0528L22 11.5ZM19.173 13.9012C18.8174 14.3238 18.8718 14.9546 19.2943 15.3102C19.7169 15.6658 20.3478 15.6115 20.7033 15.1889L19.173 13.9012ZM14.2552 14.2054C14.6318 13.8013 14.6094 13.1686 14.2054 12.7921C13.8013 12.4156 13.1685 12.4379 12.792 12.8419L14.2552 14.2054ZM10.72 14.3461L10.4725 15.315L10.4725 15.315L10.72 14.3461ZM8.65398 12.28L9.62289 12.0326L8.65398 12.28ZM10.1581 10.208C10.5621 9.83151 10.5845 9.19873 10.208 8.79468C9.83147 8.39062 9.1987 8.36828 8.79464 8.74479L10.1581 10.208ZM16.5638 16.5447C15.1018 17.6591 13.3217 18.2764 11.4837 18.3065L11.5163 20.3062C13.7812 20.2692 15.9748 19.5085 17.7762 18.1353L16.5638 16.5447ZM11.5 18.3064C8.5586 18.3064 6.17961 16.6237 4.47386 14.8042C3.6301 13.9042 2.98004 13.0004 2.54103 12.3207C2.32215 11.9817 2.15737 11.7011 2.04869 11.5079C1.99439 11.4113 1.9542 11.3368 1.92839 11.288C1.91548 11.2637 1.90618 11.2457 1.90051 11.2347C1.89767 11.2292 1.89574 11.2254 1.89473 11.2234C1.89422 11.2224 1.89394 11.2218 1.89389 11.2217C1.89387 11.2217 1.8939 11.2217 1.89399 11.2219C1.89403 11.222 1.89414 11.2222 1.89416 11.2223C1.89429 11.2225 1.89443 11.2228 1 11.67C0.105573 12.1172 0.105741 12.1175 0.105923 12.1179C0.106003 12.1181 0.106201 12.1185 0.106362 12.1188C0.106684 12.1194 0.107065 12.1202 0.107506 12.1211C0.108386 12.1228 0.109504 12.125 0.110857 12.1277C0.113564 12.133 0.117215 12.1402 0.121807 12.1491C0.13099 12.167 0.143942 12.1919 0.160634 12.2235C0.194011 12.2866 0.242386 12.3761 0.305537 12.4884C0.431765 12.7128 0.617478 13.0287 0.860955 13.4057C1.34667 14.1578 2.06877 15.163 3.01478 16.1721C4.88857 18.1708 7.75958 20.3064 11.5 20.3064V18.3064ZM1.88116 12.1428C3.00109 10.0557 4.5544 8.23227 6.4369 6.79478L5.2231 5.20522C3.11395 6.81579 1.37361 8.8588 0.118844 11.1972L1.88116 12.1428ZM9.72337 5.06644C10.3049 4.93031 10.9004 4.86227 11.4977 4.86367L11.5024 2.86367C10.75 2.86191 10.0001 2.94762 9.26754 3.11908L9.72337 5.06644ZM11.5 4.86367C14.4414 4.86367 16.8204 6.54632 18.5261 8.36579C19.3699 9.2658 20.02 10.1696 20.459 10.8494C20.6778 11.1883 20.8426 11.469 20.9513 11.6622C21.0056 11.7587 21.0458 11.8332 21.0716 11.882C21.0845 11.9064 21.0938 11.9243 21.0995 11.9354C21.1023 11.9409 21.1043 11.9447 21.1053 11.9467C21.1058 11.9477 21.1061 11.9482 21.1061 11.9483C21.1061 11.9484 21.1061 11.9483 21.106 11.9481C21.106 11.948 21.1059 11.9478 21.1058 11.9478C21.1057 11.9475 21.1056 11.9472 22 11.5C22.8944 11.0528 22.8943 11.0525 22.8941 11.0521C22.894 11.052 22.8938 11.0516 22.8936 11.0512C22.8933 11.0506 22.8929 11.0498 22.8925 11.049C22.8916 11.0472 22.8905 11.045 22.8891 11.0423C22.8864 11.037 22.8828 11.0298 22.8782 11.0209C22.869 11.003 22.8561 10.9781 22.8394 10.9466C22.806 10.8835 22.7576 10.7939 22.6945 10.6816C22.5682 10.4572 22.3825 10.1413 22.139 9.76433C21.6533 9.01226 20.9312 8.00699 19.9852 6.99791C18.1114 4.9992 15.2404 2.86367 11.5 2.86367V4.86367ZM21.1181 11.0286C20.5715 12.0512 19.9196 13.014 19.173 13.9012L20.7033 15.1889C21.5395 14.1951 22.2697 13.1168 22.8819 11.9714L21.1181 11.0286ZM12.792 12.8419C12.3274 13.3405 11.6277 13.5458 10.9674 13.3771L10.4725 15.315C11.8415 15.6646 13.2921 15.2391 14.2552 14.2054L12.792 12.8419ZM10.9674 13.3771C10.3071 13.2085 9.79152 12.6929 9.62289 12.0326L7.68508 12.5275C8.03468 13.8964 9.10362 14.9654 10.4725 15.315L10.9674 13.3771ZM9.62289 12.0326C9.45425 11.3723 9.65949 10.6726 10.1581 10.208L8.79464 8.74479C7.76097 9.70797 7.33548 11.1586 7.68508 12.5275L9.62289 12.0326Z" fill="#7507FF"/>
<path d="M1 1L22 22" stroke="#7507FF" stroke-width="2" stroke-linecap="round" stroke-linejoin="round"/>
</svg>
