<svg xmlns="http://www.w3.org/2000/svg" version="1.1" xmlns:xlink="http://www.w3.org/1999/xlink"
     xmlns:svgjs="http://svgjs.com/svgjs" width="34" height="34" x="0" y="0" viewBox="0 0 90 90"
     style="enable-background:new 0 0 512 512" xml:space="preserve" class=""><g><path xmlns="http://www.w3.org/2000/svg" id="path2" clip-rule="evenodd" d="m33.679 23.5495h22.641c2.479 0 4.479 1.995 4.479 4.479v3.516c0 2.484-2 4.484-4.479 4.484h-22.641c-2.484 0-4.484-2-4.484-4.484v-3.516c0-2.484 2-4.479 4.484-4.479zm-7.624-18.333c-1.98 0-3.579 1.604-3.579 3.578 0 1.407.828 2.688 2.115 3.261v11.495h-1.855c-1.438 0-2.593 1.511-2.593 3.386v9.901c0 1.875 1.156 3.385 2.593 3.385h1.907c.188 3.933 2.667 7.025 5.729 7.025h28.661c-3.254 2.943-7.407 4.85-11.921 5.276h-5.262c-1.353 0-2.448 1.09-2.448 2.442v1.298c0 1.354 1.095 2.448 2.448 2.448h6.636c1.355 0 2.448-1.093 2.448-2.448v-.677c5.525-1.35 10.401-4.604 13.781-9.146.698-.937.76-1.281.76-2.422v-3.796h1.781c1.438 0 2.593-1.51 2.593-3.385v-9.901c0-1.875-1.156-3.386-2.593-3.386h-1.855v-11.496c1.287-.578 2.115-1.854 2.121-3.261 0-1.974-1.604-3.578-3.578-3.578-1.975 0-3.579 1.604-3.579 3.578.005 1.407.833 2.688 2.12 3.261v6.141c-.844-.625-1.817-.995-2.86-.995h-29.252c-1.041 0-2.017.369-2.86.995v-6.141c1.287-.578 2.115-1.854 2.115-3.261-.001-1.973-1.599-3.577-3.573-3.577z" fill-rule="evenodd" fill="#6B4BDF" data-original="#000000" class=""></path><path
    xmlns="http://www.w3.org/2000/svg" id="path4"
    d="m33.602 54.1795c-13.437 2.781-18.682 11.177-18.682 22.198 0 3.177.396 3.995 1.781 4.421 4.401 1.355 9.276 2.292 13.942 2.922v-6.344c0-2.776 2.339-5.021 5.125-5.021h18.468c2.787 0 5.115 2.246 5.115 5.021v6.344c4.672-.63 9.548-1.567 13.942-2.922 1.391-.426 1.787-1.244 1.787-4.421 0-11.021-3.948-18.114-15.583-21.426-1.896 1.156-3.932 2.098-6.074 2.785-.719 2.24-2.483 4.074-4.938 4.074h-6.636c-3.02 0-5.546-2.525-5.546-5.547v-.574z"
    fill="#6B4BDF" data-original="#000000" class=""></path><path xmlns="http://www.w3.org/2000/svg" id="path6"
                                                                 d="m35.768 75.2935c-1.26 0-2.188.928-2.188 2.084v6.708c4.339.475 8.365.699 11.417.699 3.051 0 7.077-.224 11.421-.699v-6.708c0-1.156-.921-2.084-2.183-2.084z"
                                                                 fill="#6B4BDF" data-original="#000000" class=""></path><g
    xmlns="http://www.w3.org/2000/svg" clip-rule="evenodd" fill-rule="evenodd"><path id="path8" d="m37.596 26.4825c-1.828 0-3.308 1.483-3.308 3.307s1.485 3.303 3.308 3.303 3.303-1.479 3.303-3.303-1.48-3.302-3.303-3.307z" fill="#6B4BDF" data-original="#000000" class=""></path>
    <path id="path10"
          d="m52.403 26.4825c-1.828.005-3.301 1.483-3.301 3.307s1.479 3.303 3.301 3.303c1.824 0 3.303-1.479 3.303-3.303s-1.479-3.307-3.303-3.307z"
          fill="#6B4BDF" data-original="#000000" class=""></path></g></g></svg>
