<svg width="11" height="13" viewBox="0 0 11 13" fill="none" xmlns="http://www.w3.org/2000/svg">
<path d="M9.12502 9V9.21162L9.27694 9.35895L10.4536 10.5H0.546376L1.72308 9.35895L1.87501 9.21163V9V5.66669C1.87501 3.80252 2.88114 2.33182 4.58091 1.9406L4.96877 1.85134V1.45334V1C4.96877 0.737191 5.19091 0.5 5.50002 0.5C5.80912 0.5 6.03127 0.737191 6.03127 1V1.45331V1.85131L6.41912 1.94057C8.11889 2.33179 9.12502 3.80249 9.12502 5.66666V9ZM4.80025 12.1667H6.19979C6.04263 12.3668 5.79219 12.5 5.50002 12.5C5.20784 12.5 4.9574 12.3668 4.80025 12.1667Z" stroke="#FF8038"/>
<circle cx="9" cy="3" r="2" fill="#D40000"/>
</svg>
