<svg width="13" height="13" viewBox="0 0 13 13" fill="none" xmlns="http://www.w3.org/2000/svg">
<path d="M11.4888 8.60688C11.1442 9.42181 10.6052 10.1399 9.91895 10.6984C9.23271 11.2569 8.4201 11.6388 7.55217 11.8107C6.68424 11.9826 5.78741 11.9393 4.94009 11.6845C4.09278 11.4298 3.32077 10.9713 2.69157 10.3492C2.06236 9.72718 1.59512 8.96046 1.33069 8.1161C1.06626 7.27175 1.01269 6.37548 1.17467 5.50564C1.33665 4.6358 1.70924 3.81889 2.25987 3.12631C2.8105 2.43374 3.52241 1.8866 4.33335 1.53271" stroke="#084887" stroke-width="1.3" stroke-linecap="round" stroke-linejoin="round"/>
<path d="M11.9167 6.50016C11.9167 5.78884 11.7766 5.08447 11.5043 4.42729C11.2321 3.77011 10.8331 3.17298 10.3302 2.67C9.82718 2.16702 9.23005 1.76803 8.57287 1.49582C7.91569 1.2236 7.21133 1.0835 6.5 1.0835V6.50016H11.9167Z" stroke="#084887" stroke-width="1.3" stroke-linecap="round" stroke-linejoin="round"/>
</svg>
