<svg width="17" height="19" viewBox="0 0 17 19" fill="none" xmlns="http://www.w3.org/2000/svg">
<path d="M15.3572 2.28573H14.2144V1.14284C14.2144 0.512003 13.7024 0 13.0715 0H1.64288C1.012 0 0.5 0.512003 0.5 1.14284V14.8572C0.5 15.4881 1.012 16 1.64284 16H2.78569V17.1429C2.78569 17.7738 3.29769 18.2857 3.92853 18.2857H15.3572C15.988 18.2857 16.5 17.7737 16.5 17.1429V3.42857C16.5001 2.79773 15.9881 2.28573 15.3572 2.28573ZM1.64288 14.8572V1.14284H13.0715V14.8572H1.64288ZM15.3572 17.1429H3.92861V16.0001H13.0715C13.7024 16.0001 14.2144 15.4881 14.2144 14.8572V3.42857H15.3572V17.1429H15.3572Z" fill="#084887"/>
<path d="M11.357 3.42847H5.64273C5.32731 3.42847 5.07129 3.68445 5.07129 3.99991C5.07129 4.31537 5.32727 4.57135 5.64273 4.57135H11.357C11.6713 4.57135 11.9285 4.31537 11.9285 3.99991C11.9285 3.68445 11.6713 3.42847 11.357 3.42847Z" fill="#084887"/>
<path d="M11.3571 6.85718H3.35709C3.04167 6.85718 2.78564 7.11316 2.78564 7.42862C2.78564 7.74408 3.04163 8.00006 3.35709 8.00006H11.3571C11.6714 8.00006 11.9285 7.74408 11.9285 7.42862C11.9285 7.11316 11.6714 6.85718 11.3571 6.85718Z" fill="#084887"/>
<path d="M11.3571 9.14282H3.35709C3.04167 9.14282 2.78564 9.39881 2.78564 9.71426C2.78564 10.0286 3.04163 10.2857 3.35709 10.2857H11.3571C11.6714 10.2857 11.9285 10.0286 11.9285 9.71426C11.9285 9.39881 11.6714 9.14282 11.3571 9.14282Z" fill="#084887"/>
<path d="M11.3571 11.4285H3.35709C3.04167 11.4285 2.78564 11.6856 2.78564 11.9999C2.78564 12.3142 3.04163 12.5713 3.35709 12.5713H11.3571C11.6714 12.5713 11.9285 12.3142 11.9285 11.9999C11.9285 11.6856 11.6714 11.4285 11.3571 11.4285Z" fill="#084887"/>
</svg>
