<svg width="18" height="18" viewBox="0 0 18 18" fill="none" xmlns="http://www.w3.org/2000/svg">
<rect x="0.5" y="0.5" width="17" height="17" rx="4.5" stroke="#9A13CA"/>
<path fill-rule="evenodd" clip-rule="evenodd" d="M8.88629 4.08374C9.04857 3.9187 9.31167 3.9187 9.47395 4.08374L12.1184 6.77321C12.2807 6.93824 12.2807 7.20583 12.1184 7.37086C11.9561 7.5359 11.693 7.5359 11.5308 7.37086L9.59565 5.40284V13.2644C9.59565 13.4939 9.40961 13.68 9.18012 13.68C8.95062 13.68 8.76458 13.4939 8.76458 13.2644V5.40284L6.82948 7.37086C6.66721 7.5359 6.4041 7.5359 6.24183 7.37086C6.07955 7.20583 6.07955 6.93824 6.24183 6.77321L8.88629 4.08374Z" fill="#9A13CA"/>
</svg>
