<svg width="35" height="35" viewBox="0 0 35 35" fill="none" xmlns="http://www.w3.org/2000/svg">
<rect x="0.5" y="0.5" width="34" height="34" rx="4.5" stroke="#9A13CA"/>
<path d="M24.6505 22.0973H24.6348V22.1473C24.6348 22.4164 24.5304 22.655 24.3511 22.8342C24.1719 23.0135 23.9333 23.1179 23.6643 23.1179H10.8527C10.5836 23.1179 10.345 23.0135 10.1658 22.8342C9.98654 22.655 9.88213 22.4164 9.88213 22.1473V14.3285C9.88213 14.0595 9.98654 13.8209 10.1658 13.6416C10.345 13.4624 10.5836 13.358 10.8527 13.358H13.8828C14.146 13.358 14.3568 13.1472 14.3568 12.8841V12.4287C14.3568 12.2681 14.4151 12.1242 14.5148 12.0245C14.6145 11.9248 14.7584 11.8664 14.9191 11.8664H19.6135C19.7742 11.8664 19.9181 11.9248 20.0178 12.0245C20.1175 12.1242 20.1758 12.2681 20.1758 12.4287V12.8841C20.1758 13.1472 20.3866 13.358 20.6498 13.358H23.68C23.949 13.358 24.1876 13.4624 24.3668 13.6416C24.5461 13.8209 24.6505 14.0595 24.6505 14.3285V22.0973ZM25.0028 12.99C24.6637 12.6352 24.1957 12.4258 23.6643 12.4258H21.1079C21.103 12.0275 20.942 11.6454 20.6689 11.388C20.3929 11.1123 20.0194 10.95 19.6135 10.95H14.9034C14.4818 10.95 14.108 11.1123 13.8318 11.3886C13.56 11.6604 13.3982 12.0269 13.3933 12.4258H10.8527C10.321 12.4258 9.85284 12.6354 9.51375 12.9904C9.17575 13.3286 8.95 13.8119 8.95 14.3285V22.1473C8.95 22.679 9.15956 23.1472 9.51457 23.4862C9.85278 23.8243 10.336 24.05 10.8527 24.05H23.6643C24.1959 24.05 24.6641 23.8404 25.0032 23.4854C25.3412 23.1472 25.5669 22.664 25.5669 22.1473V14.3285C25.5669 13.7971 25.3575 13.3291 25.0028 12.99Z" fill="#9A13CA" stroke="#9A13CA" stroke-width="0.1"/>
<path d="M20.2228 18.2537L20.2228 18.2547C20.2382 19.0719 19.8992 19.8126 19.3585 20.3534C18.8175 20.8788 18.0762 21.2182 17.2583 21.2182C16.4404 21.2182 15.6991 20.8788 15.1582 20.3534C14.618 19.8131 14.2938 19.0722 14.2938 18.2537C14.2938 17.4359 14.6333 16.6946 15.1587 16.1536C15.699 15.6134 16.4398 15.2893 17.2583 15.2893C18.0762 15.2893 18.8175 15.6287 19.3585 16.1541C19.8987 16.6944 20.2228 17.4353 20.2228 18.2537ZM17.2583 14.3257C16.1768 14.3257 15.1909 14.771 14.4911 15.4708C13.7755 16.1864 13.346 17.1567 13.346 18.238C13.346 19.3195 13.7913 20.3055 14.4911 21.0053C15.2067 21.7209 16.177 22.1504 17.2583 22.1504C18.3398 22.1504 19.3258 21.7051 20.0256 21.0053C20.7411 20.2897 21.1706 19.3194 21.1706 18.238C21.1706 17.1566 20.7253 16.1706 20.0256 15.4708C19.3258 14.771 18.3398 14.3257 17.2583 14.3257Z" fill="#9A13CA" stroke="#9A13CA" stroke-width="0.1"/>
<path d="M22.8479 15.9485C23.3004 15.9485 23.6673 15.5817 23.6673 15.1292C23.6673 14.6767 23.3004 14.3099 22.8479 14.3099C22.3954 14.3099 22.0286 14.6767 22.0286 15.1292C22.0286 15.5817 22.3954 15.9485 22.8479 15.9485Z" fill="#9A13CA" stroke="#9A13CA" stroke-width="0.1"/>
</svg>
