<svg width="13" height="13" viewBox="0 0 13 13" fill="none" xmlns="http://www.w3.org/2000/svg">
<path d="M10.2917 5.9585H2.70833C2.11002 5.9585 1.625 6.44352 1.625 7.04183V10.8335C1.625 11.4318 2.11002 11.9168 2.70833 11.9168H10.2917C10.89 11.9168 11.375 11.4318 11.375 10.8335V7.04183C11.375 6.44352 10.89 5.9585 10.2917 5.9585Z" stroke="#084887" stroke-width="1.3" stroke-linecap="round" stroke-linejoin="round"/>
<path d="M3.79163 5.9585V3.79183C3.79163 3.07354 4.07697 2.38466 4.58488 1.87675C5.09279 1.36884 5.78166 1.0835 6.49996 1.0835C7.21825 1.0835 7.90713 1.36884 8.41504 1.87675C8.92295 2.38466 9.20829 3.07354 9.20829 3.79183V5.9585" stroke="#084887" stroke-width="1.3" stroke-linecap="round" stroke-linejoin="round"/>
</svg>
