<svg width="13" height="13" viewBox="0 0 13 13" fill="none" xmlns="http://www.w3.org/2000/svg">
<path d="M1.625 3.25H2.70833H11.375" stroke="#DF0028" stroke-width="1.3" stroke-linecap="round" stroke-linejoin="round"/>
<path d="M4.33337 3.25016V2.16683C4.33337 1.87951 4.44751 1.60396 4.65068 1.4008C4.85384 1.19763 5.12939 1.0835 5.41671 1.0835H7.58337C7.87069 1.0835 8.14624 1.19763 8.34941 1.4008C8.55257 1.60396 8.66671 1.87951 8.66671 2.16683V3.25016M10.2917 3.25016V10.8335C10.2917 11.1208 10.1776 11.3964 9.97441 11.5995C9.77124 11.8027 9.49569 11.9168 9.20837 11.9168H3.79171C3.50439 11.9168 3.22884 11.8027 3.02567 11.5995C2.82251 11.3964 2.70837 11.1208 2.70837 10.8335V3.25016H10.2917Z" stroke="#DF0028" stroke-width="1.3" stroke-linecap="round" stroke-linejoin="round"/>
<path d="M5.41663 5.9585V9.2085" stroke="#DF0028" stroke-width="1.3" stroke-linecap="round" stroke-linejoin="round"/>
<path d="M7.58337 5.9585V9.2085" stroke="#DF0028" stroke-width="1.3" stroke-linecap="round" stroke-linejoin="round"/>
</svg>
