<svg width="18" height="18" viewBox="0 0 18 18" fill="none" xmlns="http://www.w3.org/2000/svg">
<rect x="0.5" y="0.5" width="17" height="17" rx="4.5" stroke="#084887"/>
<path fill-rule="evenodd" clip-rule="evenodd" d="M8.88604 4.08374C9.04832 3.9187 9.31142 3.9187 9.4737 4.08374L12.1182 6.77321C12.2804 6.93824 12.2804 7.20583 12.1182 7.37086C11.9559 7.5359 11.6928 7.5359 11.5305 7.37086L9.59541 5.40284V13.2644C9.59541 13.4939 9.40937 13.68 9.17987 13.68C8.95038 13.68 8.76434 13.4939 8.76434 13.2644V5.40284L6.82924 7.37086C6.66696 7.5359 6.40386 7.5359 6.24158 7.37086C6.0793 7.20583 6.0793 6.93824 6.24158 6.77321L8.88604 4.08374Z" fill="#084887"/>
</svg>
