<svg width="15" height="15" viewBox="0 0 15 15" fill="none" xmlns="http://www.w3.org/2000/svg">
<path d="M2.21514 9.07029C2.04539 8.26761 2.06593 7.57764 2.06899 7.50611C2.07011 4.22772 4.75112 1.54834 8.04602 1.54834C11.3421 1.54834 14.0232 4.22949 14.0237 7.52576V7.52578C14.0237 10.8217 11.3425 13.5028 8.04622 13.5028C7.75062 13.5028 7.51172 13.2633 7.51172 12.9683C7.51172 12.6732 7.75086 12.4338 8.04622 12.4338C10.7525 12.4338 12.9545 10.2318 12.9545 7.52578C12.9545 4.81931 10.7525 2.61734 8.04622 2.61734C5.34016 2.61734 3.13799 4.81931 3.13799 7.52578V7.53005L3.13791 7.53005C3.13731 7.54772 3.11703 8.1655 3.26271 8.85607L3.49691 8.27623L3.49692 8.27621C3.6076 8.0023 3.91894 7.87117 4.19231 7.98073L4.19268 7.98088C4.46617 8.0915 4.59811 8.40305 4.48759 8.67659L3.75269 10.4962L3.75257 10.4965C3.74565 10.5135 3.73704 10.527 3.73315 10.533C3.73307 10.5332 3.73299 10.5333 3.73292 10.5334L3.73271 10.5337L3.72888 10.5397C3.72839 10.5405 3.72906 10.5395 3.7301 10.5373L2.21514 9.07029ZM2.21514 9.07029L1.67863 8.75759L1.67848 8.7575C1.42286 8.60901 1.09737 8.69554 0.947734 8.94987L0.947732 8.94987L0.947399 8.95045C0.799482 9.20493 0.885246 9.5323 1.14021 9.68087L2.98761 10.7578L2.98755 10.7579L2.99234 10.7605C2.99863 10.7638 3.00421 10.7661 3.00843 10.7677C3.00932 10.7681 3.01019 10.7684 3.01101 10.7687C3.03656 10.7817 3.06107 10.7908 3.08254 10.7981L3.12308 10.6799M2.21514 9.07029L1.61569 8.86559C1.41988 8.75184 1.17044 8.81785 1.05547 9.01326C0.942126 9.20826 1.00794 9.45912 1.20314 9.57287L3.05056 10.6498C3.05259 10.6509 3.05462 10.6516 3.05661 10.6522C3.05842 10.6528 3.0602 10.6534 3.06194 10.6543C3.08164 10.6649 3.10175 10.6726 3.12308 10.6799M3.12308 10.6799C3.12524 10.6807 3.12739 10.6814 3.12954 10.6822C3.14171 10.6865 3.15368 10.6908 3.16594 10.6937C3.18152 10.6971 3.19695 10.6985 3.21278 10.6999C3.2149 10.7 3.21702 10.7002 3.21916 10.7004M3.12308 10.6799L3.08156 10.7978C3.08297 10.7983 3.08458 10.7989 3.08638 10.7995C3.09805 10.8037 3.11734 10.8106 3.13683 10.8153L3.13682 10.8153L3.13927 10.8158C3.16337 10.8211 3.18734 10.8231 3.20248 10.8244C3.20398 10.8246 3.20539 10.8247 3.20671 10.8248M3.21916 10.7004L3.20712 10.8248C3.20668 10.8248 3.20642 10.8248 3.2064 10.8248C3.20639 10.8248 3.20649 10.8248 3.20671 10.8248M3.21916 10.7004C3.22427 10.7009 3.22939 10.7018 3.23451 10.7028C3.24198 10.7041 3.24946 10.7055 3.25694 10.7055C3.26077 10.7055 3.26449 10.7048 3.26825 10.7041C3.27146 10.7035 3.2747 10.7028 3.27806 10.7027C3.28119 10.7026 3.2841 10.7028 3.287 10.7031C3.29051 10.7035 3.29398 10.7038 3.29777 10.7035C3.30337 10.7029 3.30867 10.7014 3.31397 10.6998C3.31826 10.6985 3.32256 10.6973 3.32702 10.6966M3.21916 10.7004L3.32702 10.6966M3.20671 10.8248C3.20693 10.8248 3.20726 10.8249 3.20773 10.825L3.21621 10.8265C3.22336 10.8278 3.23888 10.8305 3.25694 10.8305C3.2658 10.8305 3.27335 10.8297 3.27891 10.829C3.28062 10.8288 3.28226 10.8285 3.28375 10.8283M3.20671 10.8248L3.28375 10.8283M3.28375 10.8283C3.28991 10.8286 3.2988 10.8289 3.30875 10.828L3.30875 10.828L3.3102 10.8278C3.32785 10.8261 3.34245 10.8217 3.3474 10.8203L3.35058 10.8193C3.37375 10.8152 3.39765 10.8098 3.42268 10.8017L3.42383 10.8013C3.4444 10.7945 3.46479 10.7863 3.48476 10.7767C3.5064 10.7664 3.52751 10.7547 3.54862 10.7407M3.28375 10.8283L3.61119 10.5022C3.60852 10.5067 3.60513 10.5105 3.6017 10.5144C3.59886 10.5176 3.596 10.5208 3.59352 10.5245C3.58356 10.5391 3.5732 10.5529 3.56122 10.5662M3.54862 10.7407C3.5484 10.7408 3.54817 10.741 3.54794 10.7411L3.47997 10.6362L3.5493 10.7402C3.54908 10.7404 3.54885 10.7405 3.54862 10.7407ZM3.54862 10.7407C3.56691 10.7288 3.58475 10.7157 3.60181 10.7013L3.60189 10.7012C3.62241 10.6839 3.63947 10.6661 3.65413 10.6498L3.56122 10.5662M3.56122 10.5662L3.65378 10.6502C3.66993 10.6324 3.68327 10.6146 3.69486 10.5978L3.5212 10.6058C3.53563 10.5936 3.54842 10.5804 3.56122 10.5662ZM3.32702 10.6966C3.34672 10.6931 3.36541 10.6888 3.3843 10.6827L3.32702 10.6966Z" fill="#084887" stroke="#084887" stroke-width="0.25"/>
<path d="M10.2241 4.99992L10.2242 4.99986C10.4332 4.79112 10.7713 4.79096 10.9801 4.99998M10.2241 4.99992L10.8916 5.08831M10.2241 4.99992L7.92068 7.30316L5.87762 6.4475L5.87747 6.44743M10.2241 4.99992L5.87747 6.44743M10.9801 4.99998L10.8916 5.08831M10.9801 4.99998C10.98 4.99996 10.98 4.99994 10.98 4.99992L10.8916 5.08831M10.9801 4.99998C11.1889 5.20886 11.1889 5.54695 10.98 5.75581L8.42327 8.31254C8.41427 8.32153 8.4055 8.32804 8.39857 8.33261C8.39476 8.33511 8.3912 8.33722 8.38844 8.33879M10.8916 5.08831C11.0517 5.24837 11.0517 5.50736 10.8916 5.66742L8.33488 8.22415C8.33147 8.22756 8.32747 8.22972 8.32352 8.23185C8.32017 8.23366 8.31685 8.23545 8.31396 8.23796M8.38844 8.33879C8.39116 8.33649 8.39387 8.33415 8.39655 8.33179L8.31396 8.23796M8.38844 8.33879C8.35356 8.36832 8.31566 8.39297 8.27473 8.41267M8.38844 8.33879C8.38645 8.33993 8.38487 8.34078 8.38395 8.34128C8.38237 8.34213 8.38182 8.34243 8.38182 8.34243C8.38182 8.34243 8.38264 8.34197 8.38336 8.34153C8.38541 8.3403 8.3903 8.33724 8.39606 8.33222L8.31396 8.23796M8.31396 8.23796L8.27473 8.41267M8.27473 8.41267C8.27445 8.4128 8.27419 8.41293 8.27391 8.41306L8.21991 8.30032L8.27505 8.4125C8.27496 8.41255 8.27485 8.41261 8.27473 8.41267ZM5.87747 6.44743C5.60402 6.33334 5.29202 6.46162 5.1778 6.73404L5.17778 6.73409M5.87747 6.44743L5.17778 6.73409M5.17778 6.73409C5.06375 7.00644 5.19235 7.31948 5.4641 7.43348L5.46418 7.43351M5.17778 6.73409L5.46418 7.43351M5.46418 7.43351L7.8383 8.42761L7.84706 8.43127M5.46418 7.43351L7.84706 8.43127M7.84706 8.43127L7.85214 8.43254M7.84706 8.43127L7.85214 8.43254M7.85214 8.43254C7.90459 8.45246 7.9562 8.45953 8.0002 8.46296C8.00332 8.46382 8.00789 8.46501 8.01299 8.46606C8.02068 8.46765 8.03177 8.4694 8.04502 8.4694C8.11185 8.4694 8.17323 8.45416 8.22661 8.43468M7.85214 8.43254L8.22661 8.43468M7.88902 8.31271L7.8587 8.43398C7.8632 8.43511 7.86689 8.43575 7.86913 8.4361L7.86791 8.43593C7.86526 8.43552 7.86117 8.4348 7.85627 8.43358L7.88902 8.31271ZM7.88902 8.31271C7.93026 8.32978 7.97372 8.33587 8.0178 8.33892L7.88902 8.31271ZM8.22661 8.43468C8.22653 8.43471 8.22645 8.43474 8.22637 8.43477L8.18396 8.31718L8.22685 8.43459C8.22677 8.43462 8.22669 8.43465 8.22661 8.43468ZM7.87232 8.43655C7.87256 8.43658 7.87231 8.43655 7.87178 8.43648L7.87232 8.43655Z" fill="#084887" stroke="#084887" stroke-width="0.25"/>
</svg>
