<svg width="17" height="20" viewBox="0 0 17 20" fill="none" xmlns="http://www.w3.org/2000/svg">
<path d="M15.7858 2.42858H14.5715V1.21427C14.5715 0.544003 14.0275 0 13.3572 0H1.21431C0.544003 0 0 0.544003 0 1.21427V15.7858C0 16.4561 0.544003 17 1.21427 17H2.42854V18.2143C2.42854 18.8846 2.97255 19.4286 3.64281 19.4286H15.7857C16.456 19.4286 17 18.8846 17 18.2143V3.64285C17.0001 2.97259 16.4561 2.42858 15.7858 2.42858ZM1.21431 15.7858V1.21427H13.3572V15.7858H1.21431ZM15.7858 18.2143H3.64289V17.0001H13.3572C14.0275 17.0001 14.5715 16.4561 14.5715 15.7858V3.64285H15.7858V18.2143H15.7858Z" fill="#FF8038"/>
<path d="M11.5357 3.64282H5.46429C5.12915 3.64282 4.85713 3.9148 4.85713 4.24998C4.85713 4.58515 5.12911 4.85713 5.46429 4.85713H11.5357C11.8697 4.85713 12.1429 4.58515 12.1429 4.24998C12.1429 3.9148 11.8697 3.64282 11.5357 3.64282Z" fill="#FF8038"/>
<path d="M11.5358 7.28564H3.03576C2.70063 7.28564 2.4286 7.55763 2.4286 7.8928C2.4286 8.22797 2.70059 8.49996 3.03576 8.49996H11.5358C11.8697 8.49996 12.1429 8.22797 12.1429 7.8928C12.1429 7.55763 11.8697 7.28564 11.5358 7.28564Z" fill="#FF8038"/>
<path d="M11.5358 9.71436H3.03576C2.70063 9.71436 2.4286 9.98634 2.4286 10.3215C2.4286 10.6554 2.70059 10.9287 3.03576 10.9287H11.5358C11.8697 10.9287 12.1429 10.6554 12.1429 10.3215C12.1429 9.98634 11.8697 9.71436 11.5358 9.71436Z" fill="#FF8038"/>
<path d="M11.5358 12.1428H3.03576C2.70063 12.1428 2.4286 12.416 2.4286 12.75C2.4286 13.0839 2.70059 13.3571 3.03576 13.3571H11.5358C11.8697 13.3571 12.1429 13.0839 12.1429 12.75C12.1429 12.416 11.8697 12.1428 11.5358 12.1428Z" fill="#FF8038"/>
</svg>
